<?xml version="1.0" standalone="no"?>
<!DOCTYPE svg PUBLIC "-//W3C//DTD SVG 20010904//EN"
 "http://www.w3.org/TR/2001/REC-SVG-20010904/DTD/svg10.dtd">
<svg version="1.0" xmlns="http://www.w3.org/2000/svg"
 width="139.000000pt" height="110.000000pt" viewBox="0 0 139.000000 110.000000"
 preserveAspectRatio="xMidYMid meet">

<g transform="translate(0.000000,110.000000) scale(0.100000,-0.100000)"
fill="#000000" stroke="none">
<path d="M163 753 c-21 -8 -15 -23 8 -23 15 0 19 -4 15 -16 -13 -34 -28 -105
-24 -110 14 -13 39 13 48 50 9 35 17 55 38 99 4 8 -65 8 -85 0z"/>
<path d="M309 745 c-26 -14 -59 -69 -59 -99 0 -24 46 -49 75 -42 42 11 78 92
56 125 -16 24 -44 -5 -30 -30 20 -38 -17 -93 -46 -69 -26 22 -18 60 21 96 37
35 29 44 -17 19z"/>
<path d="M483 750 c-13 -5 -23 -14 -23 -20 0 -6 5 -8 10 -5 14 8 12 -11 -4
-67 -14 -45 -14 -47 5 -53 31 -10 84 3 103 24 10 11 20 37 23 59 4 33 2 42
-18 56 -26 18 -61 20 -96 6z m77 -68 c0 -14 -7 -34 -17 -44 -21 -23 -46 -24
-39 0 3 9 8 31 12 47 4 17 9 34 11 38 9 15 33 -15 33 -41z"/>
<path d="M674 750 c-60 -24 -87 -120 -39 -142 33 -15 80 5 95 42 15 37 9 85
-10 85 -11 0 -14 -10 -12 -40 3 -47 -17 -81 -42 -72 -34 13 -9 117 29 117 8 0
17 5 20 10 7 12 -12 12 -41 0z"/>
<path d="M821 643 c-11 -23 -41 -122 -41 -140 0 -18 64 -17 80 2 10 13 9 15
-9 15 -26 0 -26 6 -1 70 11 28 20 55 20 60 0 17 -39 11 -49 -7z"/>
<path d="M910 641 c-7 -14 -7 -22 1 -27 10 -6 28 11 29 28 0 17 -20 17 -30 -1z"/>
<path d="M1098 628 c-28 -41 -37 -125 -13 -134 24 -10 51 4 37 18 -16 16 -15
43 1 60 14 14 18 88 6 88 -4 0 -18 -15 -31 -32z"/>
<path d="M975 586 c-30 -30 -31 -42 -7 -55 16 -9 16 -10 0 -16 -22 -9 -23 -34
-3 -41 20 -8 72 14 79 33 7 18 -1 33 -18 33 -26 0 -37 25 -21 46 14 18 14 18
15 -9 0 -18 5 -27 13 -24 6 2 12 15 12 28 0 35 -38 37 -70 5z m21 -103 c-11
-11 -19 6 -11 24 8 17 8 17 12 0 3 -10 2 -21 -1 -24z"/>
<path d="M902 588 c-17 -21 -25 -85 -12 -93 19 -11 32 9 37 59 6 46 -4 59 -25
34z"/>
<path d="M258 583 c-16 -4 -18 -17 -18 -99 l0 -94 85 0 85 0 0 30 c0 17 -4 30
-10 30 -5 0 -10 -9 -10 -20 0 -18 -7 -20 -65 -20 l-65 0 0 73 0 73 63 0 c53
-1 63 -4 68 -21 8 -28 -19 -59 -38 -43 -11 9 -17 8 -29 -3 -13 -13 -11 -18 11
-39 l26 -24 42 42 c39 39 40 43 21 48 -15 4 -20 12 -17 29 3 12 -1 26 -9 31
-14 9 -111 13 -140 7z"/>
</g>
</svg>
