<?xml version="1.0" standalone="no"?>
<!DOCTYPE svg PUBLIC "-//W3C//DTD SVG 20010904//EN"
 "http://www.w3.org/TR/2001/REC-SVG-20010904/DTD/svg10.dtd">
<svg version="1.0" xmlns="http://www.w3.org/2000/svg"
 width="183.000000pt" height="114.000000pt" viewBox="0 0 183.000000 114.000000"
 preserveAspectRatio="xMidYMid meet">

<g transform="translate(0.000000,114.000000) scale(0.100000,-0.100000)"
fill="#000000" stroke="none">
<path d="M1254 1070 c-28 -11 -64 -58 -71 -92 -4 -19 -12 -28 -25 -28 -52 0
-131 -127 -107 -171 12 -23 21 -23 59 -4 27 14 30 14 30 0 0 -8 3 -15 8 -15
15 0 72 40 72 51 0 7 -8 4 -20 -6 -11 -10 -22 -16 -24 -14 -6 5 40 205 53 236
7 15 20 23 43 25 18 2 32 8 31 13 -3 14 -24 16 -49 5z m-89 -182 c-14 -64 -41
-98 -76 -98 -14 0 -11 58 6 90 15 29 28 38 58 39 16 1 18 -4 12 -31z"/>
<path d="M814 1039 c-10 -17 13 -36 27 -22 12 12 4 33 -11 33 -5 0 -12 -5 -16
-11z"/>
<path d="M123 1011 c-51 -24 -78 -62 -78 -112 0 -43 18 -70 35 -53 8 8 6 15
-5 24 -20 17 -19 60 3 86 54 68 172 70 172 3 0 -25 -35 -59 -60 -59 -22 0 -24
10 -11 56 8 30 8 30 -23 26 -17 -3 -26 -7 -20 -9 8 -3 5 -31 -11 -94 -13 -50
-25 -92 -27 -93 -1 -2 -12 -8 -23 -14 -16 -9 -9 -11 40 -10 33 0 50 3 39 5
-21 4 -21 5 -6 64 16 65 23 66 42 4 29 -92 75 -145 128 -145 21 0 56 33 45 43
-11 12 -21 8 -26 -13 -7 -25 -39 -26 -61 -1 -10 11 -30 52 -45 93 l-27 73 35
20 c20 11 40 33 45 48 22 61 -77 97 -161 58z"/>
<path d="M362 925 c-37 -31 -54 -72 -50 -121 2 -28 8 -40 21 -42 21 -4 97 42
97 59 0 6 -14 1 -30 -11 -43 -31 -64 -20 -55 28 9 52 27 86 48 90 27 5 21 -33
-9 -57 -32 -26 -23 -27 17 -4 30 18 46 53 34 72 -11 18 -42 12 -73 -14z"/>
<path d="M488 929 c-16 -11 -28 -25 -28 -31 0 -6 9 -3 20 7 24 22 25 14 5 -70
-18 -74 -18 -75 -1 -75 9 0 19 20 26 53 7 28 15 57 19 62 10 18 8 75 -3 75 -6
0 -23 -10 -38 -21z"/>
<path d="M566 929 c-15 -12 -25 -24 -22 -27 3 -2 12 1 21 8 9 7 17 11 20 9 2
-2 -5 -39 -15 -82 -16 -70 -16 -78 -2 -75 10 2 21 24 29 58 14 53 55 111 69
97 4 -4 -1 -36 -11 -73 -21 -79 -11 -100 32 -68 15 11 29 27 31 35 3 9 -2 8
-17 -5 -11 -11 -23 -17 -26 -15 -2 3 4 34 15 70 28 91 17 109 -41 68 l-29 -20
0 20 c0 27 -20 27 -54 0z"/>
<path d="M766 929 c-14 -11 -26 -25 -26 -31 0 -6 9 -3 20 7 24 22 24 17 5 -55
-18 -69 -19 -90 -1 -90 17 0 66 38 66 52 0 6 -8 4 -18 -5 -10 -10 -21 -17 -24
-17 -3 0 2 33 13 73 10 39 19 75 19 80 0 14 -27 7 -54 -14z"/>
<path d="M866 929 c-14 -11 -26 -25 -26 -31 0 -6 9 -3 20 7 19 17 20 17 20 -1
0 -10 -7 -44 -15 -74 -18 -68 -18 -70 0 -70 8 0 18 17 25 43 6 23 15 52 20 64
9 22 57 60 65 51 2 -2 -2 -28 -10 -58 -28 -104 -13 -127 41 -68 16 18 19 24 6
14 -32 -27 -36 -15 -18 47 29 101 19 116 -45 73 l-36 -25 5 25 c6 30 -15 32
-52 3z"/>
<path d="M1368 929 c-16 -11 -28 -25 -28 -31 0 -6 9 -3 20 7 24 22 25 14 5
-70 -18 -74 -18 -75 -1 -75 9 0 19 20 26 53 7 28 15 57 19 62 10 18 8 75 -3
75 -6 0 -23 -10 -38 -21z"/>
<path d="M1446 929 c-15 -12 -25 -24 -22 -27 3 -2 12 1 21 8 9 7 17 11 20 9 2
-2 -5 -39 -15 -82 -16 -70 -16 -78 -2 -75 10 2 21 24 29 58 14 53 55 111 69
97 4 -4 -1 -36 -11 -73 -21 -79 -11 -100 32 -68 15 11 29 27 31 35 3 9 -2 8
-17 -5 -11 -11 -23 -17 -26 -15 -2 3 4 34 15 70 28 91 17 109 -41 68 l-29 -20
0 20 c0 27 -20 27 -54 0z"/>
<path d="M1672 925 c-37 -31 -54 -72 -50 -121 2 -28 8 -40 21 -42 21 -4 97 42
97 59 0 6 -14 1 -30 -11 -43 -31 -64 -20 -55 28 9 52 27 86 48 90 27 5 21 -33
-9 -57 -32 -26 -23 -27 17 -4 30 18 46 53 34 72 -11 18 -42 12 -73 -14z"/>
<path d="M1354 560 c-28 -11 -64 -58 -71 -92 -4 -19 -12 -28 -25 -28 -52 0
-131 -127 -107 -171 12 -23 21 -23 59 -4 27 14 30 14 30 0 0 -8 3 -15 8 -15
15 0 72 40 72 51 0 7 -8 4 -20 -6 -11 -10 -22 -16 -24 -14 -6 5 40 205 53 236
7 15 20 23 43 25 18 2 32 8 31 13 -3 14 -24 16 -49 5z m-89 -182 c-14 -64 -41
-98 -76 -98 -14 0 -11 58 6 90 15 29 28 38 58 39 16 1 18 -4 12 -31z"/>
<path d="M788 465 c-6 -14 -19 -25 -30 -25 -10 0 -18 -4 -18 -10 0 -5 7 -10
15 -10 19 0 19 -8 -1 -82 -24 -96 -5 -113 62 -52 33 30 34 33 7 15 -17 -12
-34 -21 -37 -21 -10 0 -6 43 8 90 10 33 19 46 35 48 27 4 28 22 1 22 -17 0
-19 5 -14 25 4 16 2 25 -5 25 -6 0 -17 -11 -23 -25z"/>
<path d="M932 427 c-29 -13 -62 -76 -62 -116 0 -67 70 -79 122 -21 72 79 28
180 -60 137z m46 -19 c28 -28 6 -122 -31 -134 -28 -9 -42 11 -41 56 2 66 41
109 72 78z"/>
<path d="M1402 427 c-29 -13 -62 -76 -62 -116 0 -67 70 -79 122 -21 72 79 28
180 -60 137z m46 -19 c28 -28 6 -122 -31 -134 -28 -9 -42 11 -41 56 2 66 41
109 72 78z"/>
<path d="M538 223 c-70 -72 -112 -143 -94 -160 3 -4 6 1 6 10 0 9 5 17 11 17
5 0 7 -5 4 -10 -3 -6 1 -10 10 -10 16 0 170 142 186 172 15 27 2 58 -24 58
-15 0 -49 -27 -99 -77z m119 35 c-3 -8 -6 -5 -6 6 -1 11 2 17 5 13 3 -3 4 -12
1 -19z m-73 -40 c-19 -23 -19 -23 1 -7 64 51 51 9 -20 -61 -54 -53 -83 -56
-42 -4 l22 29 -31 -25 c-19 -15 -28 -29 -23 -34 13 -15 11 -26 -5 -26 -42 0
-25 39 49 117 32 34 53 49 59 43 6 -6 3 -18 -10 -32z"/>
</g>
</svg>
